<?xml version="1.0" encoding="UTF-8" standalone="no"?>
<!-- Created with Inkscape (http://www.inkscape.org/) -->

<svg
   width="100"
   height="100"
   viewBox="0 0 26.458333 26.458333"
   version="1.1"
   id="svg5"
   inkscape:version="1.2 (dc2aedaf03, 2022-05-15)"
   sodipodi:docname="SettingButton.svg"
   inkscape:export-filename="SettingButton.png"
   inkscape:export-xdpi="96"
   inkscape:export-ydpi="96"
   xmlns:inkscape="http://www.inkscape.org/namespaces/inkscape"
   xmlns:sodipodi="http://sodipodi.sourceforge.net/DTD/sodipodi-0.dtd"
   xmlns="http://www.w3.org/2000/svg"
   xmlns:svg="http://www.w3.org/2000/svg">
  <sodipodi:namedview
     id="namedview7"
     pagecolor="#ffffff"
     bordercolor="#000000"
     borderopacity="0.25"
     inkscape:showpageshadow="2"
     inkscape:pageopacity="0.0"
     inkscape:pagecheckerboard="0"
     inkscape:deskcolor="#d1d1d1"
     inkscape:document-units="px"
     showgrid="true"
     inkscape:zoom="9.44"
     inkscape:cx="27.648305"
     inkscape:cy="47.669492"
     inkscape:window-width="2256"
     inkscape:window-height="1398"
     inkscape:window-x="-11"
     inkscape:window-y="-11"
     inkscape:window-maximized="1"
     inkscape:current-layer="layer1">
    <inkscape:grid
       id="grid9"
       spacingx="2.6458333"
       spacingy="2.6458333" />
  </sodipodi:namedview>
  <defs
     id="defs2" />
  <g
     inkscape:label="Layer 1"
     inkscape:groupmode="layer"
     id="layer1">
    <path
       id="use2729"
       style="fill:#999999;stroke:#999999;stroke-width:0.264583"
       inkscape:transform-center-y="-2.6458333"
       d="m 5.7456201,5.7456187 3.7417738,3.7417738 m 7.4835461,-7e-7 a 5.2916665,5.2916665 0 0 1 0,7.4835482 5.2916665,5.2916665 0 0 1 -7.4835469,-10e-7 5.2916665,5.2916665 0 0 1 -10e-8,-7.483546 5.2916665,5.2916665 0 0 1 7.483547,-1.2e-6 z M 2.6458329,13.229165 H 7.9375002 M 13.229166,7.9374982 A 5.2916665,5.2916665 0 0 1 18.520833,13.229166 5.2916665,5.2916665 0 0 1 13.229166,18.520832 5.2916665,5.2916665 0 0 1 7.9374999,13.229166 5.2916665,5.2916665 0 0 1 13.229166,7.9374982 Z M 5.7456188,20.712712 9.4873924,16.970938 m -6e-7,-7.4835462 a 5.2916665,5.2916665 0 0 1 7.4835482,4e-7 5.2916665,5.2916665 0 0 1 -10e-7,7.4835468 5.2916665,5.2916665 0 0 1 -7.4835459,0 5.2916665,5.2916665 0 0 1 -1.3e-6,-7.4835472 z M 13.229165,23.812499 V 18.520832 M 7.9374982,13.229166 A 5.2916665,5.2916665 0 0 1 13.229166,7.9374987 5.2916665,5.2916665 0 0 1 18.520832,13.229166 5.2916665,5.2916665 0 0 1 13.229166,18.520832 5.2916665,5.2916665 0 0 1 7.9374982,13.229166 Z M 20.712712,20.712713 16.970938,16.97094 m -7.4835463,0 a 5.2916665,5.2916665 0 0 1 5e-7,-7.4835478 5.2916665,5.2916665 0 0 1 7.4835468,5e-7 5.2916665,5.2916665 0 0 1 0,7.4835463 5.2916665,5.2916665 0 0 1 -7.4835473,10e-7 z M 23.812499,13.229167 h -5.291667 m -5.291666,5.291667 A 5.2916665,5.2916665 0 0 1 7.9374987,13.229166 5.2916665,5.2916665 0 0 1 13.229166,7.9374995 5.2916665,5.2916665 0 0 1 18.520832,13.229166 5.2916665,5.2916665 0 0 1 13.229166,18.520834 Z M 20.712713,5.7456204 16.97094,9.4873937 m 0,7.4835463 a 5.2916665,5.2916665 0 0 1 -7.4835476,0 5.2916665,5.2916665 0 0 1 3e-7,-7.4835473 5.2916665,5.2916665 0 0 1 7.4835463,0 5.2916665,5.2916665 0 0 1 10e-7,7.4835473 z M 13.229167,2.6458333 v 5.2916666 m 5.291666,5.2916661 a 5.2916665,5.2916665 0 0 1 -5.291667,5.291667 5.2916665,5.2916665 0 0 1 -5.2916665,-5.291667 5.2916665,5.2916665 0 0 1 5.2916665,-5.2916665 5.2916665,5.2916665 0 0 1 5.291667,5.2916665 z" />
  </g>
</svg>
